<svg width="18" height="18" viewBox="0 0 18 18" fill="none" xmlns="http://www.w3.org/2000/svg">
<path d="M13.1475 5.60256L9.39749 1.85256C9.17774 1.63281 8.82149 1.63281 8.60249 1.85256L4.85249 5.60256C4.63199 5.82231 4.63199 6.17856 4.85249 6.39756C5.07299 6.61656 5.42774 6.61806 5.64749 6.39756L8.43749 3.60756V11.2501C8.43749 11.5606 8.68949 11.8126 8.99999 11.8126C9.31049 11.8126 9.56249 11.5606 9.56249 11.2501V3.60756L12.3525 6.39756C12.462 6.50781 12.606 6.56256 12.75 6.56256C12.894 6.56256 13.038 6.50856 13.1475 6.39756C13.3672 6.17781 13.3672 5.82231 13.1475 5.60256Z" fill="#5B7083"/>
<path d="M14.781 16.458H3.219C2.271 16.458 1.5 15.687 1.5 14.739V10.5C1.5 10.1895 1.752 9.9375 2.0625 9.9375C2.373 9.9375 2.625 10.1895 2.625 10.5V14.739C2.625 15.0668 2.89125 15.333 3.219 15.333H14.781C15.1088 15.333 15.375 15.0668 15.375 14.739V10.5C15.375 10.1895 15.627 9.9375 15.9375 9.9375C16.248 9.9375 16.5 10.1895 16.5 10.5V14.739C16.5 15.687 15.729 16.458 14.781 16.458Z" fill="#5B7083"/>
</svg>
