<svg width="18" height="18" viewBox="0 0 18 18" fill="none" xmlns="http://www.w3.org/2000/svg">
<path d="M10.5345 1.68145L7.42351 1.67395H7.42201C4.14151 1.67395 1.57201 4.2442 1.57201 7.52545C1.57201 10.599 3.96151 12.9299 7.17076 13.0529V15.924C7.17076 16.005 7.20376 16.1384 7.26076 16.2262C7.36726 16.3949 7.54876 16.4865 7.73476 16.4865C7.83826 16.4865 7.94251 16.458 8.03626 16.398C8.23426 16.2719 12.891 13.2929 14.1023 12.2684C15.5288 11.0609 16.3823 9.29095 16.3845 7.53445V7.5217C16.38 4.24645 13.812 1.68145 10.5345 1.6807V1.68145ZM13.3748 11.4104C12.5243 12.1304 9.72826 13.9642 8.29576 14.8927V12.5024C8.29576 12.1919 8.04451 11.9399 7.73326 11.9399H7.43626C4.69126 11.9399 2.69776 10.083 2.69776 7.52545C2.69776 4.87495 4.77376 2.79895 7.42276 2.79895L10.533 2.80645H10.5345C13.1835 2.80645 15.2595 4.88095 15.261 7.52845C15.2588 8.96095 14.5545 10.4114 13.3755 11.4104H13.3748Z" fill="#5B7083"/>
</svg>
